<svg width="159" height="194" viewBox="0 0 159 194" fill="none" xmlns="http://www.w3.org/2000/svg">
<g clip-path="url(#clip0_2_20)">
<path d="M0.108952 84.4811C0.108952 58.6938 0.238001 32.9044 0.00208241 7.12109C-0.050344 1.59798 1.65352 -0.161583 7.19862 0.0121511C42.0824 1.09698 75.6857 7.74936 107.373 22.7895C110.721 24.3773 113.409 24.3632 116.715 22.7895C148.407 7.78775 181.974 1.07678 216.872 0.0182116C222.518 -0.153502 224.018 1.60202 224 7.08877C223.828 58.6608 223.819 110.234 223.974 161.809C223.974 166.56 223.03 168.817 217.574 169.36C182.69 172.845 148.685 180.382 115.961 193.198C113.225 194.271 110.878 194.265 108.148 193.198C75.4135 180.388 41.427 172.829 6.53119 169.334C1.2462 168.805 -0.0160652 166.758 0.0222464 161.841C0.211788 136.056 0.110968 110.266 0.108952 84.4811Z" fill="#22719E"/>
<path d="M115.475 186.004V179.412C115.475 131.667 115.446 83.9235 115.387 36.1831C115.387 32.3448 116.34 30.3064 119.984 28.6196C149.423 14.9835 180.476 8.55538 212.702 6.88067C216.487 6.67865 217.209 7.92913 217.201 11.3836C217.108 60.3846 217.083 109.387 217.126 158.391C217.126 160.383 217.691 162.459 214.37 162.815C180.829 166.409 148.107 173.669 115.475 186.004Z" fill="#CAE3F1"/>
<path d="M6.98284 84.0387C6.98284 60.1462 7.01712 36.2558 6.94453 12.3654C6.94453 8.89073 6.84976 6.54734 11.7839 6.83017C43.5926 8.64831 74.2802 14.9694 103.417 28.2439C107.363 30.0418 108.783 32.2094 108.765 36.6699C108.586 84.242 108.597 131.814 108.799 179.386C108.827 185.321 107.428 185.727 102.3 183.831C74.3367 173.528 45.4618 166.96 15.857 163.609C6.98486 162.599 6.98485 162.599 6.98485 153.821L6.98284 84.0387Z" fill="#CAE3F1"/>
<path d="M172.257 72.1419C175.441 71.6733 177.097 72.4187 177.558 74.6186C178.02 76.8186 176.752 78.1539 174.628 78.5782C161.11 81.2791 148.062 85.4164 135.724 91.685C133.708 92.7072 131.824 91.8769 131.05 89.9153C129.933 87.0871 132.058 85.7477 134.224 84.7255C144.802 79.7398 155.707 75.6914 167.17 73.2571C169.206 72.8247 171.237 72.3662 172.257 72.1419Z" fill="#22719E"/>
<path d="M173.467 96.1232C175.733 95.7293 177.278 96.8667 177.629 98.909C178.078 101.535 176.044 102.485 173.903 103.024C168.257 104.452 162.562 105.693 156.965 107.291C149.952 109.293 143.231 112.105 136.726 115.416C134.651 116.47 132.605 116.721 131.282 114.44C129.919 112.089 131.205 110.561 133.341 109.468C146.042 102.97 159.469 98.6868 173.467 96.1232Z" fill="#22719E"/>
<path d="M173.866 144.417C175.522 144.397 177.064 144.876 177.496 146.896C177.958 149.102 176.974 150.688 174.832 151.09C161.318 153.6 148.213 157.963 135.887 164.055C133.806 165.087 132.143 164.419 131.133 162.564C129.977 160.443 131.284 158.779 133.018 157.918C145.913 151.439 159.457 146.866 173.866 144.417Z" fill="#22719E"/>
<path d="M177.732 123.327C177.445 125.953 175.735 126.87 173.497 127.282C160.741 129.64 148.528 133.634 136.916 139.45C134.698 140.565 132.262 141.044 131.068 138.238C129.874 135.432 132.064 134.122 134.216 133.072C146.443 127.098 159.276 122.971 172.624 120.381C175.328 119.86 177.088 120.604 177.732 123.327Z" fill="#22719E"/>
<path d="M173.086 47.9061C175.143 47.6111 177.032 48.0071 177.504 50.2697C178.02 52.7545 176.607 54.0756 174.165 54.5645C160.856 57.2251 148.024 61.3442 135.865 67.439C133.722 68.5137 132.171 67.744 131.163 65.9017C129.997 63.7704 131.365 62.4411 133.008 61.2553C138.277 57.4857 166.297 48.1162 173.086 47.9061Z" fill="#22719E"/>
<path d="M177.72 27.1631C177.673 28.8822 176.348 29.9085 174.318 30.4135C168.269 31.9206 162.246 33.4741 156.217 35.0316C154.166 35.5609 152.488 35.2659 151.591 33.1064C150.647 30.8398 151.825 29.3873 153.743 28.6883C160.194 26.3531 166.868 24.6858 173.659 23.7126C175.699 23.4157 177.363 24.2601 177.72 27.1631Z" fill="#22719E"/>
<path d="M92.1233 63.9825C92.2766 69.5642 90.6393 75.7762 85.2474 80.2408C82.6664 82.3781 82.8277 84.9174 82.8701 87.578C83.0717 101.834 84.7836 115.983 86.0318 130.165C86.2516 132.668 86.5843 135.165 86.6952 137.672C87.036 145.262 82.7229 150.197 75.9337 150.116C69.2372 150.027 64.9523 144.924 65.5411 137.3C66.3638 126.654 67.4486 116.028 68.3641 105.382C68.7089 101.418 68.9408 97.4465 69.1928 93.4748C69.5759 87.4143 69.0718 82.2508 64.3817 76.9984C56.55 68.2309 59.5423 48.9545 68.6383 41.4113C74.0947 36.8881 80.3657 37.3709 85.2494 43.0415C90.1009 48.6636 92.1294 55.3928 92.1233 63.9825Z" fill="#22719E"/>
<path d="M40.2414 111.727C40.2414 101.939 40.2192 92.7233 40.2595 83.5094C40.2595 81.6387 39.9046 79.1721 41.4431 78.1438C48.8292 73.2025 46.0022 65.9299 46.0002 59.3563C46.0002 53.916 45.5828 48.4758 45.3408 43.0355C45.2541 41.1001 45.1513 38.876 47.6315 38.6315C50.2084 38.379 50.3818 40.5628 50.4544 42.5203C50.8234 52.3565 51.1682 62.1947 51.5997 72.0288C51.7006 74.3176 51.0856 76.4408 49.2486 77.5337C44.871 80.1418 44.9718 84.1215 44.992 88.4224C45.0646 104.77 45.7159 121.09 46.9459 137.385C47.3371 142.591 46.3047 147.148 41.0822 149.401C33.7405 152.567 27.2315 146.488 27.9937 137.211C29.3488 120.711 29.9335 104.182 30.1351 87.6305C30.1835 83.6871 29.9859 80.2569 26.1649 77.8933C24.1243 76.6307 23.4225 74.3803 23.5173 71.8631C23.8823 62.233 24.1666 52.6009 24.4207 42.9749C24.4731 40.9547 24.8239 38.5952 26.9271 38.5305C29.6331 38.4558 29.7823 40.981 29.6956 43.2072C29.3588 51.7868 29.1269 60.3785 28.7035 68.9481C28.5583 71.8591 29.006 74.158 31.6434 75.956C35.2729 78.4347 34.8455 82.5599 34.9745 86.2588C35.5472 102.824 34.3696 119.335 33.317 135.848C33.2364 137.098 32.9924 138.353 33.0367 139.597C33.1396 142.383 34.2607 144.72 37.3055 144.85C40.8322 144.993 41.9795 142.411 41.8343 139.395C41.3806 129.973 40.7636 120.567 40.2414 111.727Z" fill="#22719E"/>
<path d="M36.4969 54.3544C36.4969 57.8951 36.4969 61.4364 36.4969 64.9784C36.4969 66.7178 36.3839 68.5258 34.1659 68.6713C31.9983 68.8107 31.4155 67.2451 31.4175 65.3683C31.4175 57.4513 31.4438 49.5363 31.4175 41.6193C31.4175 39.9264 32.1656 38.6012 33.7606 38.5164C35.8113 38.4073 36.4807 39.9668 36.4727 41.8537C36.4586 46.0213 36.4727 50.1868 36.4727 54.3544H36.4969Z" fill="#22719E"/>
<path d="M43.7378 53.5767C43.7378 57.3342 43.7116 61.0957 43.7499 64.8532C43.7701 66.9602 43.2216 68.843 40.8201 68.7864C38.6484 68.7359 38.5193 66.7966 38.5193 65.0592C38.5193 57.5402 38.5234 50.0212 38.5314 42.5021C38.5314 40.5608 38.6907 38.4174 41.2818 38.5649C43.3164 38.68 43.7176 40.488 43.7015 42.2981C43.6834 46.0576 43.7015 49.8171 43.7015 53.5767H43.7378Z" fill="#22719E"/>
<path d="M86.9553 63.7179C87.157 68.4087 85.804 73.1237 81.628 76.6327C79.2829 78.6044 78.9522 81.2306 78.7143 83.97C77.3492 99.7393 79.8374 115.323 80.9444 130.973C81.1057 133.27 81.4143 135.557 81.6098 137.842C81.9708 142.066 80.4544 145.019 75.8248 144.856C71.5218 144.704 70.2756 141.67 70.5983 137.85C71.4573 127.624 72.5018 117.414 73.2478 107.18C73.7056 100.917 73.8527 94.6303 73.9455 88.3497C74.0201 83.2548 72.9635 78.867 69.0376 74.75C62.45 67.839 64.4805 51.6575 71.8888 45.4213C75.3368 42.5183 78.3735 43.3567 81.2469 46.2839C84.7514 49.8616 87.04 56.6049 86.9553 63.7179Z" fill="#CAE3F1"/>
</g>
<defs>
<clipPath id="clip0_2_20">
<rect width="224" height="194" fill="white"/>
</clipPath>
</defs>
</svg>
