<svg width="24" height="21" viewBox="0 0 24 21" fill="none" xmlns="http://www.w3.org/2000/svg">
<path d="M3.99219 12.9023H4.68945C4.68938 12.7667 4.64977 12.6341 4.57546 12.5206C4.50116 12.4072 4.39538 12.3179 4.27109 12.2636L3.99219 12.9023ZM17.0078 12.9023L16.7289 12.2636C16.6046 12.3179 16.4988 12.4072 16.4245 12.5206C16.3502 12.6341 16.3106 12.7667 16.3105 12.9023H17.0078ZM13.9863 5.85156C13.9863 6.03649 14.0598 6.21384 14.1906 6.3446C14.3213 6.47537 14.4987 6.54883 14.6836 6.54883C14.8685 6.54883 15.0459 6.47537 15.1766 6.3446C15.3074 6.21384 15.3809 6.03649 15.3809 5.85156H13.9863ZM5.61914 5.85156C5.61914 6.03649 5.6926 6.21384 5.82336 6.3446C5.95413 6.47537 6.13148 6.54883 6.31641 6.54883C6.50133 6.54883 6.67868 6.47537 6.80945 6.3446C6.94021 6.21384 7.01367 6.03649 7.01367 5.85156H5.61914ZM5.85156 3.29492C4.43379 3.29492 3.07409 3.85813 2.07158 4.86064C1.06907 5.86316 0.505859 7.22286 0.505859 8.64062H1.90039C1.90039 7.59271 2.31667 6.58771 3.05766 5.84672C3.79865 5.10574 4.80365 4.68945 5.85156 4.68945V3.29492ZM15.1484 4.68945C16.1964 4.68945 17.2013 5.10574 17.9423 5.84672C18.6833 6.58771 19.0996 7.59271 19.0996 8.64062H20.4941C20.4941 7.22286 19.9309 5.86316 18.9284 4.86064C17.9259 3.85813 16.5662 3.29492 15.1484 3.29492V4.68945ZM13.2891 19.0996H7.71094V20.4941H13.2891V19.0996ZM7.71094 19.0996C6.81472 19.0996 6.21228 19.0977 5.76324 19.0373C5.33466 18.9797 5.15058 18.8802 5.02972 18.7584L4.04425 19.7457C4.46726 20.1687 4.99439 20.3407 5.57823 20.4198C6.14162 20.496 6.85377 20.4941 7.71094 20.4941V19.0996ZM3.29492 16.0781C3.29492 16.9353 3.29306 17.6474 3.3693 18.2108C3.44739 18.7947 3.62031 19.3218 4.04332 19.7448L5.02972 18.7593C4.90886 18.6385 4.80938 18.4544 4.75081 18.0249C4.69131 17.5768 4.68945 16.9743 4.68945 16.0781H3.29492ZM16.3105 16.0781C16.3105 16.9743 16.3087 17.5768 16.2483 18.0258C16.1906 18.4544 16.0911 18.6385 15.9694 18.7593L16.9567 19.7448C17.3797 19.3218 17.5517 18.7947 17.6307 18.2108C17.7069 17.6474 17.7051 16.9353 17.7051 16.0781H16.3105ZM13.2891 20.4941C14.1462 20.4941 14.8584 20.496 15.4218 20.4198C16.0056 20.3417 16.5337 20.1688 16.9567 19.7448L15.9703 18.7593C15.8494 18.8802 15.6653 18.9797 15.2358 19.0382C14.7877 19.0977 14.1853 19.0996 13.2891 19.0996V20.4941ZM5.85156 4.68945C6.0499 4.68945 6.24451 4.70371 6.43541 4.73222L6.63901 3.35256C6.37822 3.31477 6.11508 3.29551 5.85156 3.29492V4.68945ZM10.5 0.50586C9.47986 0.505582 8.48527 0.824956 7.656 1.4191C6.82673 2.01325 6.20447 2.85229 5.87666 3.81834L7.19682 4.26645C7.43101 3.57629 7.8756 2.97687 8.4681 2.55247C9.06059 2.12807 9.77119 1.90003 10.5 1.90039V0.50586ZM5.87666 3.81834C5.70652 4.32375 5.61954 4.85343 5.61914 5.38672H7.01367C7.01367 4.99346 7.07875 4.61694 7.19775 4.26645L5.87666 3.81834ZM15.1484 3.29492C14.8813 3.29492 14.6188 3.31414 14.361 3.35256L14.5655 4.73222C14.7584 4.70269 14.9533 4.68839 15.1484 4.68945V3.29492ZM10.5 1.90039C11.2287 1.90022 11.939 2.12836 12.5314 2.55275C13.1237 2.97713 13.5681 3.57644 13.8022 4.26645L15.1224 3.81834C14.7947 2.85245 14.1725 2.0135 13.3435 1.41937C12.5144 0.825241 11.52 0.505776 10.5 0.50586V1.90039ZM13.8022 4.26645C13.9213 4.61694 13.9863 4.99346 13.9863 5.38672H15.3809C15.3809 4.83913 15.2898 4.312 15.1224 3.81834L13.8022 4.26645ZM4.68945 16.0781V12.9023H3.29492V16.0781H4.68945ZM4.27109 12.2636C3.56621 11.956 2.96643 11.4493 2.54531 10.8057C2.1242 10.1622 1.90006 9.40972 1.90039 8.64062H0.505859C0.505672 9.68094 0.809036 10.6987 1.37876 11.5691C1.94849 12.4396 2.75982 13.1249 3.71328 13.541L4.27109 12.2636ZM16.3105 12.9023V16.0781H17.7051V12.9023H16.3105ZM19.0996 8.64062C19.0999 9.40972 18.8758 10.1622 18.4547 10.8057C18.0336 11.4493 17.4338 11.956 16.7289 12.2636L17.2867 13.541C18.2402 13.1249 19.0515 12.4396 19.6212 11.5691C20.191 10.6987 20.4943 9.68094 20.4941 8.64062H19.0996ZM13.9863 5.38672V5.85156H15.3809V5.38672H13.9863ZM5.61914 5.38672V5.85156H7.01367V5.38672H5.61914Z" fill="black"/>
<path d="M3.99219 16.0781H17.0078" stroke="black" stroke-width="1.5" stroke-linecap="round" stroke-linejoin="round"/>
<g clip-path="url(#clip0_3_107)">
<rect x="14" width="9" height="9" rx="4.5" fill="white"/>
<path d="M19.3498 7.05609L19.5343 6.61064C19.8587 5.82263 20.4528 5.19081 21.1994 4.83987L21.7686 4.57308C21.8377 4.53974 21.8962 4.48633 21.9372 4.41916C21.9782 4.352 22 4.2739 22 4.19413C22 4.11436 21.9782 4.03627 21.9372 3.96911C21.8962 3.90194 21.8377 3.84852 21.7686 3.81519L21.2309 3.56413C20.4656 3.2032 19.8613 2.54801 19.5426 1.73355L19.3528 1.25269C19.325 1.17821 19.2764 1.11426 19.2134 1.06918C19.1503 1.02411 19.0759 1 18.9996 1C18.9233 1 18.8488 1.02411 18.7858 1.06918C18.7228 1.11426 18.6742 1.17821 18.6463 1.25269L18.4566 1.73277C18.1382 2.54738 17.5342 3.20284 16.7691 3.56413L16.2306 3.81598C16.1617 3.84941 16.1034 3.90282 16.0626 3.96989C16.0217 4.03697 16 4.11492 16 4.19453C16 4.27413 16.0217 4.35208 16.0626 4.41916C16.1034 4.48624 16.1617 4.53965 16.2306 4.57308L16.8006 4.83909C17.547 5.19038 18.1408 5.82247 18.4648 6.61064L18.6493 7.05609C18.7843 7.38191 19.2141 7.38191 19.3498 7.05609Z" fill="black"/>
</g>
<defs>
<clipPath id="clip0_3_107">
<rect x="14" width="9" height="9" rx="4.5" fill="white"/>
</clipPath>
</defs>
</svg>
