<svg width="42" height="43" viewBox="0 0 42 43" fill="none" xmlns="http://www.w3.org/2000/svg">
<rect y="0.650887" width="41.8935" height="41.8935" rx="8" fill="#E6EBF2"/>
<g clip-path="url(#clip0_2_398)">
<path d="M27.1879 30.0155C25.5205 31.6674 23.3066 32.574 20.9467 32.574C18.5869 32.574 16.373 31.6674 14.7056 30.0155C13.0444 28.3667 12.1284 26.1807 12.1284 23.855C12.1284 22.5043 12.4327 21.2095 13.0319 20.0047C13.6157 18.8279 14.4851 17.7753 15.5408 16.9649C16.2141 16.45 16.8248 15.8581 17.3604 15.2012C18.1367 14.2542 18.7453 13.1984 19.1675 12.0651C19.3408 11.5976 19.4666 11.1139 19.5433 10.6212C20.2916 11.3106 20.9188 12.1427 21.4436 13.1177C22.4806 15.0615 22.9588 16.791 22.8657 18.2628C22.8434 18.6094 22.9 18.9566 23.0313 19.2782C23.1625 19.5998 23.3649 19.8875 23.6233 20.1196C23.8472 20.3219 24.1091 20.4777 24.3938 20.5779C24.6784 20.6781 24.9802 20.7208 25.2814 20.7034C25.8931 20.6723 26.4551 20.4022 26.865 19.9457C27.278 19.4831 27.6351 19.0111 27.9331 18.5298C28.3679 19.0856 28.7311 19.6911 29.0199 20.3432C29.5136 21.4548 29.7651 22.6378 29.7651 23.855C29.7651 26.1807 28.8491 28.3698 27.1879 30.0155Z" stroke="#22719E" stroke-width="1.5" stroke-linejoin="round"/>
<path d="M22.6701 28.2053C22.0009 28.8683 21.1124 29.2322 20.1653 29.2322C19.2182 29.2322 18.3296 28.8683 17.6604 28.2053C16.9937 27.5436 16.6261 26.6662 16.6261 25.7328C16.6261 25.1907 16.7482 24.6711 16.9887 24.1876C17.223 23.7152 17.5719 23.2928 17.9956 22.9675C18.2659 22.7609 18.511 22.5233 18.7259 22.2597C19.0375 21.8796 19.2817 21.4559 19.4512 21.001C19.5207 20.8134 19.5712 20.6193 19.602 20.4215C19.9023 20.6982 20.1541 21.0322 20.3647 21.4235C20.7809 22.2036 20.9728 22.8977 20.9354 23.4884C20.9265 23.6276 20.9492 23.7669 21.0019 23.896C21.0545 24.025 21.1358 24.1405 21.2395 24.2337C21.3294 24.3148 21.4345 24.3774 21.5487 24.4176C21.663 24.4578 21.7841 24.4749 21.905 24.4679C22.1505 24.4555 22.376 24.3471 22.5405 24.1639C22.7063 23.9782 22.8496 23.7888 22.9692 23.5956C23.1437 23.8187 23.2895 24.0617 23.4054 24.3234C23.6035 24.7695 23.7045 25.2443 23.7045 25.7328C23.7045 26.6662 23.3369 27.5448 22.6701 28.2053Z" stroke="#22719E" stroke-width="1.5" stroke-linejoin="round"/>
</g>
<defs>
<clipPath id="clip0_2_398">
<rect width="25.1361" height="25.1361" fill="white" transform="translate(8.37869 9.02959)"/>
</clipPath>
</defs>
</svg>
