<svg width="43" height="42" viewBox="0 0 43 42" fill="none" xmlns="http://www.w3.org/2000/svg">
<rect x="0.857971" width="41.8935" height="41.8935" rx="8" fill="#E6EBF2"/>
<path d="M30.3362 18.4102C29.2112 19.9403 28.5361 21.5604 28.3561 23.2255C28.0411 25.8357 26.601 28.0858 24.3509 29.4359C23.0458 30.201 21.5607 30.606 20.0756 30.606C17.0154 30.606 14.1802 28.9409 12.6952 26.2407C10.58 22.4155 11.8851 17.4202 15.5753 15.125C16.5204 14.54 17.5105 14.135 18.5905 13.955C19.9856 13.7299 21.3807 13.0999 22.8208 12.0648C22.9558 11.9748 23.0908 11.8848 23.2258 11.7948C24.3059 11.2098 25.5209 10.8498 26.736 10.8498C28.5361 10.8498 30.1112 11.6598 30.8763 13.0099C31.8213 14.585 31.5963 16.6551 30.3362 18.4102Z" stroke="#22719E" stroke-width="1.5"/>
<path d="M20.9307 19.2653C20.7057 19.2203 20.4356 19.3553 20.3906 19.5803C20.3456 19.8053 20.4806 20.0753 20.7057 20.1203C21.7857 20.3904 22.4608 21.5154 22.1908 22.5955C22.1457 22.8205 22.2808 23.0905 22.5058 23.1355C22.5508 23.1355 22.5958 23.1355 22.5958 23.1355C22.7758 23.1355 23.0008 23.0005 23.0458 22.7755C23.4958 21.2904 22.5058 19.6703 20.9307 19.2653Z" fill="#22719E"/>
<circle cx="20.2331" cy="22.123" r="5.01014" stroke="#22719E" stroke-width="1.5"/>
</svg>
