<svg width="43" height="43" viewBox="0 0 43 43" fill="none" xmlns="http://www.w3.org/2000/svg">
<rect x="0.857971" y="0.650887" width="41.8935" height="41.8935" rx="8" fill="#E6EBF2"/>
<path d="M27.1447 16.3496C23.3278 12.6873 20.2772 12.4389 19.58 12.4338L12.4609 29.7617C12.3247 30.0934 12.4614 30.3864 12.6351 30.5504C12.8088 30.7144 13.1167 30.841 13.4596 30.705L31.2657 23.6526C31.2501 22.977 30.9518 20.0024 27.1447 16.3496Z" stroke="#22719E" stroke-width="1.5" stroke-linejoin="round"/>
<path d="M27.2283 24.8427C27.1184 24.457 26.8837 24.0989 26.6534 23.7499C26.4322 23.4144 26.2231 23.0978 26.1341 22.7775C26.0471 22.4654 26.064 22.0962 26.0818 21.7055C26.1077 21.1365 26.1344 20.5483 25.8373 20.0553C25.553 19.5834 25.0206 19.3159 24.506 19.0569C24.1496 18.8775 23.7809 18.692 23.5275 18.4491C23.2744 18.206 23.0811 17.8525 22.8941 17.5102C22.6241 17.0163 22.3451 16.5055 21.8534 16.233C21.3399 15.9481 20.7271 15.9737 20.1336 15.9983C19.7262 16.0152 19.3416 16.0314 19.0163 15.9481C18.6825 15.8628 18.3522 15.6621 18.0028 15.4499" stroke="#22719E" stroke-width="1.5"/>
<path d="M20.7574 18.9793C20.7574 19.2685 20.523 19.503 20.2337 19.503C19.9445 19.503 19.7101 19.2685 19.7101 18.9793C19.7101 18.6901 19.9445 18.4556 20.2337 18.4556C20.523 18.4556 20.7574 18.6901 20.7574 18.9793Z" stroke="#22719E" stroke-width="1.5"/>
<path d="M24.2472 24.0325C24.2472 24.3217 24.0128 24.5561 23.7236 24.5561C23.4344 24.5561 23.1999 24.3217 23.1999 24.0325C23.1999 23.7432 23.4344 23.5088 23.7236 23.5088C24.0128 23.5088 24.2472 23.7432 24.2472 24.0325Z" stroke="#22719E" stroke-width="1.5"/>
<path d="M21.0658 24.3189C21.0658 24.6082 20.8314 24.8426 20.5422 24.8426C20.253 24.8426 20.0185 24.6082 20.0185 24.3189C20.0185 24.0297 20.253 23.7953 20.5422 23.7953C20.8314 23.7953 21.0658 24.0297 21.0658 24.3189Z" stroke="#22719E" stroke-width="1.5"/>
<path d="M16.9556 26.9237C16.9556 27.2129 16.7211 27.4474 16.4319 27.4474C16.1427 27.4474 15.9082 27.2129 15.9082 26.9237C15.9082 26.6345 16.1427 26.4001 16.4319 26.4001C16.7211 26.4001 16.9556 26.6345 16.9556 26.9237Z" stroke="#22719E" stroke-width="1.5"/>
<path d="M18.0029 22.619C18.0029 22.9082 17.7685 23.1427 17.4792 23.1427C17.19 23.1427 16.9556 22.9082 16.9556 22.619C16.9556 22.3298 17.19 22.0954 17.4792 22.0954C17.7685 22.0954 18.0029 22.3298 18.0029 22.619Z" stroke="#22719E" stroke-width="1.5"/>
</svg>
