<svg width="42" height="42" viewBox="0 0 42 42" fill="none" xmlns="http://www.w3.org/2000/svg">
<rect width="41.8935" height="41.8935" rx="8" fill="#E6EBF2"/>
<path d="M23.3958 17.5992L15.9335 30.5242" stroke="#22719E" stroke-width="1.5" stroke-linecap="round" stroke-linejoin="round"/>
<path d="M21.5401 28.1674C20.1346 28.544 17.8898 27.4204 17.8898 27.4204C17.8898 27.4204 19.3011 24.9091 20.8739 24.6082C22.2628 24.3425 24.3279 25.6953 24.3279 25.6953C24.3279 25.6953 22.9456 27.7908 21.5401 28.1674Z" stroke="#22719E" stroke-width="1.5" stroke-linecap="round" stroke-linejoin="round"/>
<path d="M24.6836 22.7227C23.2781 23.0993 21.0333 21.9757 21.0333 21.9757C21.0333 21.9757 22.4446 19.4644 24.0174 19.1635C25.4063 18.8978 27.4714 20.2506 27.4714 20.2506C27.4714 20.2506 26.0891 22.3461 24.6836 22.7227Z" stroke="#22719E" stroke-width="1.5" stroke-linecap="round" stroke-linejoin="round"/>
<path d="M26.5052 15.5462C25.7777 16.8063 23.3958 17.5992 23.3958 17.5992C23.3958 17.5992 22.618 14.8254 23.5174 13.5005C24.3117 12.3305 26.7285 11.8269 26.7285 11.8269C26.7285 11.8269 27.2328 14.2861 26.5052 15.5462Z" stroke="#22719E" stroke-width="1.5" stroke-linecap="round" stroke-linejoin="round"/>
<path d="M15.0776 24.4362C15.4542 25.8417 17.5497 27.224 17.5497 27.224C17.5497 27.224 19.0189 24.7461 18.493 23.2336C18.0287 21.8979 15.8246 20.7859 15.8246 20.7859C15.8246 20.7859 14.701 23.0307 15.0776 24.4362Z" stroke="#22719E" stroke-width="1.5" stroke-linecap="round" stroke-linejoin="round"/>
<path d="M18.2211 18.9916C18.5977 20.3971 20.6931 21.7793 20.6931 21.7793C20.6931 21.7793 22.1623 19.3014 21.6365 17.7889C21.1721 16.4532 18.968 15.3412 18.968 15.3412C18.968 15.3412 17.8445 17.5861 18.2211 18.9916Z" stroke="#22719E" stroke-width="1.5" stroke-linecap="round" stroke-linejoin="round"/>
</svg>
