<svg width="300" height="72" viewBox="0 0 300 72" fill="none" xmlns="http://www.w3.org/2000/svg">
<path d="M97 16.0373H121.455V23.0253H104.272V32.5246H119.731V39.5126H104.272V55.1265H97V16.0373ZM138.421 56C135.584 56 133.053 55.3631 130.826 54.0892C128.6 52.779 126.858 51.0138 125.601 48.7936C124.38 46.5371 123.77 44.0075 123.77 41.2051C123.77 38.439 124.38 35.9277 125.601 33.6711C126.858 31.4146 128.6 29.6494 130.826 28.3755C133.053 27.0652 135.584 26.4101 138.421 26.4101C141.222 26.4101 143.736 27.0652 145.962 28.3755C148.189 29.6494 149.913 31.4146 151.134 33.6711C152.39 35.9277 153.019 38.439 153.019 41.2051C153.019 44.0075 152.39 46.5371 151.134 48.7936C149.913 51.0138 148.189 52.779 145.962 54.0892C143.736 55.3631 141.222 56 138.421 56ZM138.421 49.3941C139.786 49.3941 141.043 49.0666 142.192 48.4115C143.341 47.7563 144.257 46.81 144.939 45.5726C145.621 44.3351 145.962 42.8793 145.962 41.2051C145.962 39.5672 145.621 38.1296 144.939 36.8921C144.257 35.6547 143.341 34.7084 142.192 34.0533C141.043 33.3981 139.786 33.0706 138.421 33.0706C137.057 33.0706 135.8 33.3981 134.651 34.0533C133.501 34.7084 132.568 35.6547 131.85 36.8921C131.167 38.1296 130.826 39.5672 130.826 41.2051C130.826 42.8429 131.167 44.2987 131.85 45.5726C132.568 46.81 133.501 47.7563 134.651 48.4115C135.8 49.0666 137.057 49.3941 138.421 49.3941ZM171.561 56C168.724 56 166.193 55.3631 163.966 54.0892C161.74 52.779 159.998 51.0138 158.741 48.7936C157.52 46.5371 156.91 44.0075 156.91 41.2051C156.91 38.439 157.52 35.9277 158.741 33.6711C159.998 31.4146 161.74 29.6494 163.966 28.3755C166.193 27.0652 168.724 26.4101 171.561 26.4101C174.362 26.4101 176.876 27.0652 179.102 28.3755C181.329 29.6494 183.053 31.4146 184.274 33.6711C185.53 35.9277 186.159 38.439 186.159 41.2051C186.159 44.0075 185.53 46.5371 184.274 48.7936C183.053 51.0138 181.329 52.779 179.102 54.0892C176.876 55.3631 174.362 56 171.561 56ZM171.561 49.3941C172.926 49.3941 174.183 49.0666 175.332 48.4115C176.481 47.7563 177.397 46.81 178.079 45.5726C178.761 44.3351 179.102 42.8793 179.102 41.2051C179.102 39.5672 178.761 38.1296 178.079 36.8921C177.397 35.6547 176.481 34.7084 175.332 34.0533C174.183 33.3981 172.926 33.0706 171.561 33.0706C170.197 33.0706 168.94 33.3981 167.791 34.0533C166.642 34.7084 165.708 35.6547 164.99 36.8921C164.307 38.1296 163.966 39.5672 163.966 41.2051C163.966 42.8429 164.307 44.2987 164.99 45.5726C165.708 46.81 166.642 47.7563 167.791 48.4115C168.94 49.0666 170.197 49.3941 171.561 49.3941ZM203.355 56C200.877 56 198.614 55.3813 196.568 54.1438C194.557 52.87 192.959 51.1229 191.774 48.9028C190.624 46.6462 190.05 44.0803 190.05 41.2051C190.05 38.3662 190.624 35.8185 191.774 33.5619C192.959 31.3054 194.557 29.5584 196.568 28.3209C198.614 27.047 200.877 26.4101 203.355 26.4101C205.222 26.4101 206.874 26.8287 208.311 27.6658C209.748 28.4665 210.843 29.4674 211.597 30.6684H212.028L211.597 26.7377V16.0373H218.6V55.1265H212.028V51.7963H211.597C210.879 52.9973 209.784 53.9982 208.311 54.7989C206.874 55.5996 205.222 56 203.355 56ZM204.54 49.3941C205.868 49.3941 207.108 49.0484 208.258 48.3569C209.407 47.6653 210.322 46.7008 211.005 45.4634C211.687 44.2259 212.028 42.8065 212.028 41.2051C212.028 39.6036 211.687 38.1842 211.005 36.9467C210.322 35.7093 209.407 34.763 208.258 34.1079C207.108 33.4163 205.868 33.0706 204.54 33.0706C203.247 33.0706 202.026 33.4163 200.877 34.1079C199.728 34.763 198.812 35.7093 198.13 36.9467C197.447 38.1842 197.106 39.6036 197.106 41.2051C197.106 42.8065 197.447 44.2259 198.13 45.4634C198.812 46.7008 199.728 47.6653 200.877 48.3569C202.026 49.0484 203.247 49.3941 204.54 49.3941ZM239.134 16.0373H263.589V23.0253H246.406V32.5246H261.865V39.5126H246.406V55.1265H239.134V16.0373ZM272.504 24.2264C271.247 24.2264 270.17 23.7714 269.272 22.8615C268.374 21.9516 267.925 20.8597 267.925 19.5859C267.925 18.312 268.374 17.2383 269.272 16.3648C270.17 15.4549 271.247 15 272.504 15C273.761 15 274.82 15.4549 275.682 16.3648C276.58 17.2383 277.028 18.312 277.028 19.5859C277.028 20.8597 276.58 21.9516 275.682 22.8615C274.82 23.7714 273.761 24.2264 272.504 24.2264ZM268.949 27.2836H276.005V55.1265H268.949V27.2836ZM295.098 55.5632C293.734 55.5632 292.477 55.3631 291.328 54.9627C290.178 54.526 289.245 53.9436 288.527 53.2157C286.839 51.5779 285.995 49.2486 285.995 46.2277V33.3981H281.201V27.2836H285.995V19.4221H293.051V27.2836H299.785V33.3981H293.051V44.9174C293.051 46.3369 293.357 47.356 293.967 47.9747C294.47 48.557 295.332 48.8482 296.553 48.8482C297.235 48.8482 297.792 48.7572 298.222 48.5752C298.689 48.3933 299.282 48.0839 300 47.6471V54.6352C298.456 55.2539 296.822 55.5632 295.098 55.5632Z" fill="#141516"/>
<g clip-path="url(#clip0_39_37)">
<path d="M60.7349 27.417L61.3111 26.0351C62.2918 23.6237 64.1445 21.6645 66.5047 20.5431L68.2798 19.7082C68.4977 19.6025 68.6805 19.4368 68.8066 19.2308C68.9341 19.0201 69.0014 18.7789 69.0014 18.533C69.0014 18.2872 68.9341 18.046 68.8066 17.8353C68.6805 17.6293 68.4977 17.4636 68.2798 17.3578L66.6035 16.5789C64.183 15.4244 62.2987 13.3924 61.3371 10.9L60.7431 9.41038C60.6581 9.18208 60.5067 8.98408 60.3083 8.84154C60.1146 8.70136 59.8812 8.62585 59.6416 8.62585C59.402 8.62585 59.1686 8.70136 58.9749 8.84154C58.7764 8.98408 58.6251 9.18208 58.54 9.41038L57.9474 10.9C56.9861 13.392 55.103 15.4242 52.6838 16.5803L51.0047 17.3619C50.7878 17.4674 50.6058 17.6326 50.4807 17.838C50.3524 18.0482 50.2846 18.2893 50.2846 18.5351C50.2846 18.7809 50.3524 19.022 50.4807 19.2322C50.6053 19.4383 50.7873 19.6041 51.0047 19.7096L52.7881 20.5349C55.1474 21.658 56.999 23.618 57.979 26.0297L58.5551 27.4115C58.6374 27.6327 58.7858 27.8235 58.9802 27.9585C59.1747 28.0934 59.406 28.1661 59.6431 28.1667C59.8802 28.1673 60.1119 28.0958 60.307 27.9618C60.5022 27.8278 60.6515 27.6377 60.7349 27.417Z" fill="#141516"/>
<path d="M17.0374 65.6783C18.357 66.9906 20.0005 67.5239 21.8222 67.7695C23.5795 68.0055 25.8004 68 28.4741 68H45.874C48.5477 68 50.7686 68 52.5259 67.7695C54.3476 67.5267 55.9952 66.9906 57.3135 65.6755C58.6318 64.3605 59.1695 62.729 59.4164 60.9174C59.6538 59.17 59.6483 56.9614 59.6483 54.3027V45.7946C62.5545 44.2239 64.9243 41.828 66.4557 38.9126C67.9871 35.9971 68.6106 32.6942 68.2467 29.425C67.2982 30.1585 66.2585 30.7674 65.1533 31.2365C64.7733 31.3975 64.3865 31.5421 63.99 31.669C63.9089 33.9795 63.1722 36.2201 61.8651 38.1321C60.5579 40.044 58.7337 41.5494 56.6029 42.4743C56.2152 42.6424 55.8852 42.9193 55.6535 43.2711C55.4217 43.623 55.2983 44.0344 55.2983 44.455V52.3807H19.0539V44.4509C19.0533 44.0303 18.9294 43.619 18.6975 43.2672C18.4656 42.9155 18.1356 42.6385 17.748 42.4702C15.1973 41.363 13.0984 39.4301 11.7929 36.9859C10.4873 34.5417 10.052 31.7302 10.5576 29.0087C11.0632 26.2872 12.4801 23.8159 14.5777 21.997C16.6753 20.178 19.3301 19.1185 22.1103 18.9907C22.0073 19.7032 21.955 20.4221 21.9539 21.1419V22.5838C21.9539 22.8678 22.0101 23.1489 22.1194 23.4112C22.2287 23.6736 22.3888 23.9119 22.5907 24.1127C22.7926 24.3135 23.0323 24.4727 23.2961 24.5814C23.5599 24.69 23.8427 24.746 24.1282 24.746C24.4137 24.746 24.6965 24.69 24.9603 24.5814C25.2241 24.4727 25.4638 24.3135 25.6657 24.1127C25.8676 23.9119 26.0277 23.6736 26.137 23.4112C26.2463 23.1489 26.3025 22.8678 26.3025 22.5838V21.1419C26.3013 19.9603 26.4954 18.7865 26.8773 17.6675C27.5208 15.7781 28.6773 14.1026 30.2189 12.8262C31.7604 11.5498 33.627 10.7224 35.6121 10.4353C37.5972 10.1483 39.6235 10.4128 41.4668 11.1998C43.31 11.9867 44.8985 13.2653 46.0565 14.8942C46.4605 13.339 47.1326 11.8653 48.0428 10.5385C46.3248 8.79679 44.209 7.49369 41.8755 6.74013C39.5421 5.98657 37.06 5.80487 34.6407 6.2105C32.2214 6.61613 29.9365 7.59707 27.9805 9.06982C26.0246 10.5426 24.4554 12.4635 23.4066 14.6691C23.1625 14.6595 22.9183 14.6514 22.6741 14.6514C18.9672 14.6501 15.3656 15.8773 12.4385 18.139C9.51142 20.4007 7.42572 23.5679 6.51105 27.1401C5.59639 30.7122 5.90493 34.4857 7.38791 37.864C8.87088 41.2423 11.4437 44.0328 14.6998 45.7946V54.3027C14.6998 56.9614 14.6998 59.17 14.9316 60.9174C15.1758 62.729 15.7149 64.3632 17.0346 65.6755M54.2393 62.6199C53.862 62.995 53.2886 63.3019 51.9497 63.4834C50.5519 63.6689 48.6725 63.6743 45.8781 63.6743H28.4782C25.6825 63.6743 23.8031 63.6743 22.4025 63.4806C21.0663 63.3019 20.4916 62.9936 20.1143 62.6158C19.7384 62.2406 19.4284 61.6704 19.246 60.339C19.1211 59.406 19.0786 58.2546 19.0635 56.7582H55.2942C55.2791 58.2587 55.2352 59.4073 55.1076 60.3417C54.9279 61.6718 54.6179 62.242 54.2379 62.6171L54.2393 62.6199Z" fill="#141516"/>
</g>
<defs>
<clipPath id="clip0_39_37">
<rect width="63" height="62" fill="white" transform="translate(6 6)"/>
</clipPath>
</defs>
</svg>
